<?xml version="1.0" encoding="utf-8" standalone="no"?>
<!DOCTYPE svg PUBLIC "-//W3C//DTD SVG 1.1//EN"
  "http://www.w3.org/Graphics/SVG/1.1/DTD/svg11.dtd">
<svg xmlns:xlink="http://www.w3.org/1999/xlink" width="360pt" height="216pt" viewBox="0 0 360 216" xmlns="http://www.w3.org/2000/svg" version="1.1">
 <metadata>
  <rdf:RDF xmlns:dc="http://purl.org/dc/elements/1.1/" xmlns:cc="http://creativecommons.org/ns#" xmlns:rdf="http://www.w3.org/1999/02/22-rdf-syntax-ns#">
   <cc:Work>
    <dc:type rdf:resource="http://purl.org/dc/dcmitype/StillImage"/>
    <dc:date>2025-05-03T09:53:33.511748</dc:date>
    <dc:format>image/svg+xml</dc:format>
    <dc:creator>
     <cc:Agent>
      <dc:title>Matplotlib v3.7.2, https://matplotlib.org/</dc:title>
     </cc:Agent>
    </dc:creator>
   </cc:Work>
  </rdf:RDF>
 </metadata>
 <defs>
  <style type="text/css">*{stroke-linejoin: round; stroke-linecap: butt}</style>
 </defs>
 <g id="figure_1">
  <g id="patch_1">
   <path d="M 0 216 
L 360 216 
L 360 0 
L 0 0 
z
" style="fill: #ffffff"/>
  </g>
  <g id="axes_1">
   <g id="line2d_1">
    <path d="M 16.363636 205.785524 
L 115.076098 205.880676 
L 115.395763 206.181818 
L 115.523629 206.072325 
L 115.715427 205.403658 
L 115.971159 203.129578 
L 116.226891 198.651227 
L 116.674421 185.36645 
L 117.185885 172.459478 
L 118.144879 158.224936 
L 118.720276 151.91866 
L 120.957929 131.933059 
L 121.597258 127.88633 
L 122.492319 121.187628 
L 124.793905 108.066737 
L 125.497167 104.279736 
L 126.008631 101.767149 
L 126.711893 99.386164 
L 127.926619 93.440956 
L 128.438083 91.782829 
L 128.885613 88.86797 
L 129.397077 85.992627 
L 130.100339 83.674391 
L 134.25598 70.888603 
L 135.023176 67.182162 
L 135.34284 66.929263 
L 135.598572 66.662418 
L 135.98217 65.711529 
L 141.800067 48.462787 
L 141.991866 48.446538 
L 142.50333 48.727093 
L 142.695129 48.417853 
L 143.142659 46.936841 
L 144.357385 43.182158 
L 144.549184 43.01445 
L 144.804916 43.178604 
L 145.060647 43.289415 
L 145.252446 43.037956 
L 145.636044 41.876676 
L 146.914703 37.830359 
L 147.170435 37.580737 
L 147.490099 37.748502 
L 147.681898 37.775662 
L 147.873697 37.578035 
L 148.193362 36.863708 
L 149.535953 33.381113 
L 149.727752 33.391106 
L 150.11135 33.556561 
L 150.303149 33.317303 
L 150.686746 32.092982 
L 151.134277 30.905145 
L 151.453942 30.608656 
L 152.029338 30.397415 
L 152.28507 29.816484 
L 152.924399 28.063059 
L 153.180131 27.989337 
L 153.563729 27.948623 
L 153.883393 27.627431 
L 154.842388 26.418828 
L 155.225985 26.190138 
L 155.481717 25.596291 
L 156.057113 23.91506 
L 156.312845 23.826019 
L 156.696443 23.837051 
L 157.016108 23.458036 
L 157.71937 22.524055 
L 158.742297 21.52122 
L 159.253761 20.847001 
L 159.89309 20.502494 
L 160.532419 19.481576 
L 160.788151 19.610633 
L 161.043883 19.664169 
L 161.235682 19.368765 
L 161.811078 18.091428 
L 162.002877 18.168196 
L 162.322542 18.313583 
L 162.514341 17.989889 
L 163.089737 16.58208 
L 163.281536 16.754501 
L 163.601201 17.14476 
L 163.729066 17.060104 
L 163.984798 16.390872 
L 164.368396 15.381294 
L 164.560195 15.326193 
L 165.32739 15.652186 
L 165.966719 15.240522 
L 166.41425 14.687532 
L 166.989646 13.944127 
L 167.309311 13.907871 
L 167.628976 14.147902 
L 167.948641 14.381341 
L 168.140439 14.261765 
L 168.396171 13.642446 
L 168.779769 12.684407 
L 168.971568 12.656901 
L 169.610897 13.100275 
L 170.953489 11.810917 
L 171.401019 11.046477 
L 171.656751 11.026033 
L 172.807544 11.529657 
L 173.255075 11.337568 
L 173.894404 11.026335 
L 174.214069 11.200633 
L 174.853398 11.65501 
L 175.10913 11.579586 
L 175.364862 11.245669 
L 176.068124 10.140814 
L 176.579588 9.929393 
L 177.154984 9.823098 
L 178.625442 9.976647 
L 179.264771 9.828229 
L 179.840168 9.966892 
L 180.415564 10.072405 
L 181.886022 9.927739 
L 182.589284 10.077967 
L 183.164681 9.915077 
L 183.676144 9.825205 
L 184.443339 10.064103 
L 184.763004 10.328005 
L 185.210535 11.127558 
L 185.594132 11.62025 
L 185.849864 11.641074 
L 186.233462 11.377026 
L 186.744925 11.026446 
L 187.06459 11.121453 
L 187.895718 11.538998 
L 188.279316 11.483575 
L 188.790779 11.150586 
L 189.110444 10.999595 
L 189.302243 11.103629 
L 189.621908 11.67283 
L 190.069438 12.377409 
L 190.836634 12.898115 
L 191.156298 13.151086 
L 191.348097 13.030639 
L 191.795628 12.635101 
L 191.987427 12.90881 
L 192.690689 14.381438 
L 192.946421 14.214888 
L 193.393951 13.891561 
L 193.649683 13.943445 
L 193.969348 14.285567 
L 194.800476 15.340604 
L 195.439805 15.690359 
L 195.695537 15.636765 
L 196.207001 15.330131 
L 196.398799 15.60438 
L 197.038129 17.144958 
L 197.229928 16.956891 
L 197.549592 16.58212 
L 197.677458 16.686644 
L 197.93319 17.386362 
L 198.316788 18.312927 
L 198.508587 18.275655 
L 198.828251 18.091141 
L 198.956117 18.209846 
L 199.275782 19.024997 
L 199.595447 19.663473 
L 199.787245 19.651822 
L 200.170843 19.497254 
L 200.362642 19.728393 
L 201.001971 20.754891 
L 201.577368 21.015374 
L 202.664228 22.321305 
L 203.175691 22.794606 
L 204.134685 23.8752 
L 204.518283 23.856643 
L 204.710082 24.134883 
L 205.157612 25.592695 
L 205.477277 26.263537 
L 205.860875 26.44168 
L 206.116607 26.655299 
L 207.2674 28.008393 
L 207.71493 28.062041 
L 207.906729 28.368701 
L 208.80179 30.547034 
L 209.44112 30.813093 
L 209.696851 31.288255 
L 210.144382 32.768555 
L 210.464047 33.515576 
L 210.655845 33.549444 
L 211.103376 33.380476 
L 211.295175 33.60406 
L 211.678772 34.541731 
L 212.829565 37.66658 
L 213.085297 37.777966 
L 213.596761 37.632458 
L 213.78856 37.977094 
L 214.300023 39.704489 
L 215.450816 43.156593 
L 215.642615 43.297248 
L 215.898347 43.121869 
L 216.154078 43.029606 
L 216.345877 43.311715 
L 216.729475 44.536618 
L 217.944201 48.415132 
L 218.199933 48.752352 
L 218.391731 48.666106 
L 218.775329 48.427743 
L 218.967128 48.610804 
L 219.286793 49.322475 
L 220.565451 53.207137 
L 225.10469 66.760477 
L 225.424355 66.992564 
L 225.616154 67.180389 
L 225.807953 67.676703 
L 226.127617 69.363931 
L 226.639081 71.960557 
L 231.497984 87.207332 
L 232.584844 93.103593 
L 233.032375 94.527595 
L 233.543838 97.180064 
L 234.247101 100.695306 
L 234.88643 102.818007 
L 237.571614 117.530401 
L 239.106004 128.398198 
L 239.617468 131.574892 
L 240.064998 134.646279 
L 242.238718 155.110655 
L 242.750182 161.889511 
L 243.709176 177.781577 
L 244.796036 204.489661 
L 245.051768 205.923841 
L 245.243567 206.181727 
L 245.435366 206.049472 
L 245.818963 205.686225 
L 246.138628 205.736502 
L 246.650091 205.809735 
L 248.376281 205.784966 
L 252.148324 205.705461 
L 252.467989 205.22428 
L 252.91552 204.076236 
L 279.575556 122.548655 
L 280.023087 121.650531 
L 280.342752 121.390514 
L 280.726349 121.410925 
L 281.365679 121.451014 
L 283.219734 121.442198 
L 307.002788 121.539992 
L 307.25852 121.934566 
L 307.706051 123.207824 
L 310.838765 132.788843 
L 334.749685 205.575933 
L 335.069349 205.781323 
L 336.092277 205.786602 
L 343.636364 205.785524 
L 343.636364 205.785524 
" clip-path="url(#p0ad3846609)" style="fill: none; stroke: #0000ff; stroke-width: 1.5; stroke-linecap: square"/>
   </g>
  </g>
 </g>
 <defs>
  <clipPath id="p0ad3846609">
   <rect x="0" y="0" width="360" height="216"/>
  </clipPath>
 </defs>
</svg>
