<?xml version="1.0" encoding="utf-8" standalone="no"?>
<!DOCTYPE svg PUBLIC "-//W3C//DTD SVG 1.1//EN"
  "http://www.w3.org/Graphics/SVG/1.1/DTD/svg11.dtd">
<svg xmlns:xlink="http://www.w3.org/1999/xlink" width="360pt" height="216pt" viewBox="0 0 360 216" xmlns="http://www.w3.org/2000/svg" version="1.1">
 <metadata>
  <rdf:RDF xmlns:dc="http://purl.org/dc/elements/1.1/" xmlns:cc="http://creativecommons.org/ns#" xmlns:rdf="http://www.w3.org/1999/02/22-rdf-syntax-ns#">
   <cc:Work>
    <dc:type rdf:resource="http://purl.org/dc/dcmitype/StillImage"/>
    <dc:date>2025-05-01T12:14:58.062471</dc:date>
    <dc:format>image/svg+xml</dc:format>
    <dc:creator>
     <cc:Agent>
      <dc:title>Matplotlib v3.7.2, https://matplotlib.org/</dc:title>
     </cc:Agent>
    </dc:creator>
   </cc:Work>
  </rdf:RDF>
 </metadata>
 <defs>
  <style type="text/css">*{stroke-linejoin: round; stroke-linecap: butt}</style>
 </defs>
 <g id="figure_1">
  <g id="patch_1">
   <path d="M 0 216 
L 360 216 
L 360 0 
L 0 0 
z
" style="fill: #ffffff"/>
  </g>
  <g id="axes_1">
   <g id="line2d_1">
    <path d="M 16.363636 205.844466 
L 115.076098 205.927012 
L 115.395763 206.181818 
L 115.523629 206.078151 
L 115.715427 205.472892 
L 115.907226 204.055746 
L 116.162958 200.274324 
L 116.482623 191.596809 
L 117.121952 173.510772 
L 118.144879 158.3153 
L 118.656343 152.457927 
L 120.76613 134.475479 
L 121.916923 126.246553 
L 125.177503 105.421502 
L 126.008631 102.468681 
L 126.775826 98.129038 
L 127.351223 96.369781 
L 127.990552 92.926487 
L 128.693814 89.554288 
L 131.378998 79.244326 
L 131.826529 77.744193 
L 132.274059 76.727312 
L 132.657657 74.925997 
L 133.105187 73.02657 
L 134.383846 69.3629 
L 135.087109 67.06813 
L 135.726438 65.222142 
L 136.365767 63.358516 
L 136.813298 62.193929 
L 137.51656 59.798378 
L 138.091957 59.069524 
L 138.475555 57.485939 
L 138.859152 56.163633 
L 139.946012 53.815969 
L 140.713207 51.460463 
L 141.41647 50.427676 
L 142.50333 47.363094 
L 143.270525 46.342714 
L 144.03772 44.534731 
L 144.485251 44.085493 
L 144.804916 43.289035 
L 145.827843 40.437833 
L 146.21144 39.966376 
L 146.914703 39.411779 
L 147.170435 38.59818 
L 147.873697 36.036287 
L 148.257295 35.674911 
L 148.768758 35.169311 
L 150.11135 33.372962 
L 151.006411 32.220707 
L 151.453942 31.756132 
L 151.837539 30.82803 
L 152.349003 29.653911 
L 152.924399 29.039194 
L 153.81946 28.012638 
L 155.098119 26.154074 
L 156.121046 24.407673 
L 156.760376 24.366543 
L 157.207906 23.661547 
L 157.911169 22.691985 
L 159.765224 20.468662 
L 160.084889 20.387731 
L 160.468486 20.347689 
L 160.788151 19.967671 
L 161.811078 18.483128 
L 163.345469 16.689073 
L 164.368396 15.396362 
L 164.688061 15.802054 
L 165.007725 16.115246 
L 165.199524 16.039573 
L 165.838853 15.297474 
L 166.478183 14.50874 
L 166.925713 13.996616 
L 167.245378 13.952751 
L 168.076506 14.078914 
L 168.396171 13.770781 
L 168.971568 13.148229 
L 169.994495 12.561959 
L 170.825623 11.727011 
L 171.145288 11.783635 
L 171.784617 11.997324 
L 172.040349 11.824072 
L 172.93541 10.804162 
L 173.446874 10.979569 
L 174.02227 11.057338 
L 174.469801 10.878136 
L 175.364862 10.365344 
L 175.812392 10.593289 
L 176.259923 10.740519 
L 176.515655 10.565923 
L 177.154984 9.821538 
L 177.410716 10.047424 
L 177.794314 10.375679 
L 178.050045 10.18455 
L 178.433643 9.838495 
L 178.689375 9.930826 
L 179.200838 10.192051 
L 179.648369 9.991956 
L 180.223765 9.821192 
L 180.799162 9.904408 
L 181.63029 10.162754 
L 182.269619 9.8599 
L 182.589284 10.183259 
L 182.908949 10.369213 
L 183.164681 10.130677 
L 183.484345 9.821824 
L 183.676144 9.906496 
L 184.507272 10.73978 
L 184.954803 10.514231 
L 185.402334 10.355707 
L 185.721998 10.510128 
L 186.553126 11.04555 
L 187.000657 11.03619 
L 187.959651 10.882663 
L 188.279316 11.316065 
L 188.726847 11.942512 
L 188.982578 12.000386 
L 189.494042 11.784111 
L 189.877639 11.743375 
L 190.197304 12.004103 
L 191.092365 12.927466 
L 192.051359 13.513097 
L 192.626756 14.104594 
L 192.946421 14.097118 
L 193.649683 13.96713 
L 193.905415 14.160829 
L 195.631604 16.115372 
L 195.823403 15.981239 
L 196.398799 15.372691 
L 196.590598 15.532218 
L 198.700385 18.346454 
L 199.403648 19.216375 
L 200.234776 20.379033 
L 200.682307 20.386733 
L 200.938038 20.525155 
L 202.472429 22.358457 
L 204.198618 24.484482 
L 204.646149 24.45051 
L 204.901881 24.795786 
L 206.244472 27.237497 
L 207.587064 28.910378 
L 208.418192 29.866423 
L 208.865723 31.003797 
L 209.313254 31.937555 
L 210.719778 33.65244 
L 212.06237 35.38749 
L 212.957431 36.459567 
L 213.341029 38.032892 
L 213.724627 39.409406 
L 214.044291 39.776257 
L 214.555755 40.082523 
L 214.939353 40.680377 
L 215.450816 42.058825 
L 216.218011 44.185891 
L 217.04914 45.390355 
L 217.624536 46.845583 
L 218.519597 48.108735 
L 219.031061 49.786123 
L 219.478591 50.998376 
L 220.181854 52.009283 
L 221.460513 55.656828 
L 221.84411 56.309483 
L 222.163775 57.480886 
L 222.675238 59.365495 
L 222.994903 59.670201 
L 223.250635 60.030942 
L 223.5703 61.155288 
L 224.081763 62.937466 
L 224.785025 64.770976 
L 225.552221 67.065313 
L 226.063684 68.637673 
L 227.086611 72.017715 
L 227.725941 73.680367 
L 228.684935 77.497125 
L 229.068533 78.442046 
L 232.456978 91.860409 
L 233.543838 97.304093 
L 234.119235 99.088105 
L 234.630698 102.461369 
L 235.014296 104.200113 
L 235.653626 106.182736 
L 236.101156 108.775326 
L 237.763413 119.861734 
L 238.338809 123.566492 
L 240.704328 141.391616 
L 241.855121 151.321455 
L 242.366584 156.567412 
L 243.325579 170.563517 
L 243.709176 177.504365 
L 244.859969 205.10105 
L 245.115701 206.076363 
L 245.3075 206.171862 
L 246.074695 205.782651 
L 246.714024 205.861116 
L 248.248415 205.844309 
L 260.52354 205.70468 
L 260.843204 205.086504 
L 261.226802 203.700109 
L 264.807047 188.097878 
L 270.30528 164.372263 
L 272.670799 154.108468 
L 275.164183 143.304684 
L 282.068941 113.514589 
L 285.840985 97.16828 
L 288.334369 86.430631 
L 290.572022 77.642073 
L 290.827754 77.53642 
L 291.914614 77.611334 
L 296.517786 77.6485 
L 296.773518 77.902065 
L 297.029249 78.580949 
L 297.668579 81.393064 
L 326.438402 205.423924 
L 326.758067 205.789775 
L 327.205598 205.854414 
L 343.636364 205.844466 
L 343.636364 205.844466 
" clip-path="url(#pec4aaf5ebe)" style="fill: none; stroke: #0000ff; stroke-width: 1.5; stroke-linecap: square"/>
   </g>
  </g>
 </g>
 <defs>
  <clipPath id="pec4aaf5ebe">
   <rect x="0" y="0" width="360" height="216"/>
  </clipPath>
 </defs>
</svg>
